<?xml version="1.0" encoding="UTF-8"?>
<svg width="219px" height="219px" viewBox="0 0 219 219" version="1.1" xmlns="http://www.w3.org/2000/svg" xmlns:xlink="http://www.w3.org/1999/xlink">
    <!-- Generator: Sketch 52.4 (67378) - http://www.bohemiancoding.com/sketch -->
    <title>Group 2 Copy 3</title>
    <desc>Created with Sketch.</desc>
    <defs>
        <filter x="-60.7%" y="-52.4%" width="217.2%" height="217.2%" filterUnits="objectBoundingBox" id="filter-1">
            <feOffset dx="0" dy="10" in="SourceAlpha" result="shadowOffsetOuter1"></feOffset>
            <feGaussianBlur stdDeviation="10" in="shadowOffsetOuter1" result="shadowBlurOuter1"></feGaussianBlur>
            <feColorMatrix values="0 0 0 0 0.458823529   0 0 0 0 0.494117647   0 0 0 0 0.564705882  0 0 0 0.1 0" type="matrix" in="shadowBlurOuter1" result="shadowMatrixOuter1"></feColorMatrix>
            <feMerge>
                <feMergeNode in="shadowMatrixOuter1"></feMergeNode>
                <feMergeNode in="SourceGraphic"></feMergeNode>
            </feMerge>
        </filter>
        <linearGradient x1="0%" y1="0%" x2="96.1058171%" y2="100%" id="linearGradient-2">
            <stop stop-color="#00A6FF" offset="0%"></stop>
            <stop stop-color="#00C8FF" offset="100%"></stop>
        </linearGradient>
        <path d="M20,0 L125,0 C136.045695,-2.02906125e-15 145,8.954305 145,20 L145,125 C145,136.045695 136.045695,145 125,145 L20,145 C8.954305,145 1.3527075e-15,136.045695 0,125 L0,20 C-1.3527075e-15,8.954305 8.954305,2.02906125e-15 20,0 Z" id="path-3"></path>
        <filter x="-33.1%" y="-24.8%" width="162.1%" height="162.1%" filterUnits="objectBoundingBox" id="filter-5">
            <feOffset dx="-3" dy="9" in="SourceAlpha" result="shadowOffsetOuter1"></feOffset>
            <feGaussianBlur stdDeviation="13.5" in="shadowOffsetOuter1" result="shadowBlurOuter1"></feGaussianBlur>
            <feColorMatrix values="0 0 0 0 0   0 0 0 0 0.756862745   0 0 0 0 1  0 0 0 0.390483469 0" type="matrix" in="shadowBlurOuter1"></feColorMatrix>
        </filter>
    </defs>
    <g id="Page-1" stroke="none" stroke-width="1" fill="none" fill-rule="evenodd">
        <g id="How-it-works" transform="translate(-696.000000, -628.000000)">
            <g id="Group-6" transform="translate(139.000000, 389.000000)">
                <g id="Group-2-Copy-3" transform="translate(597.000000, 257.000000)">
                    <g id="Bitmap" filter="url(#filter-1)">
                        <mask id="mask-4" fill="white">
                            <use xlink:href="#path-3"></use>
                        </mask>
                        <g id="Mask">
                            <use fill="black" fill-opacity="1" filter="url(#filter-5)" xlink:href="#path-3"></use>
                            <use fill="url(#linearGradient-2)" fill-rule="evenodd" xlink:href="#path-3"></use>
                        </g>
                        <g id="chat" mask="url(#mask-4)" fill="#FFFFFF">
                            <g transform="translate(39.000000, 45.000000)">
                                <path d="M49.1906911,0 L3.80944107,0 C1.70883775,0 0,1.72437065 0,3.84393457 L0,31.3176003 C0,33.4371642 1.70883775,35.1616682 3.80944107,35.1616682 L6.75210909,35.1616682 L6.75210909,45.3894941 C6.75210909,46.040683 7.14083566,46.6280063 7.73727064,46.8773354 C7.93467292,46.9600007 8.14211707,47 8.34771141,47 C8.76312824,47 9.17114579,46.8362695 9.4764983,46.5282747 L20.740716,35.1618015 L23.0006681,35.1618015 C23.8821076,35.1618015 24.5965347,34.4408804 24.5965347,33.5514289 C24.5965347,32.6618441 23.8818433,31.940923 23.0006681,31.940923 C23.0006681,31.940923 20.0026376,31.9430563 19.9713228,31.9462562 C19.5997731,31.9717225 19.2350942,32.1261198 18.9510147,32.4126483 L9.94384224,41.5016936 C9.94384224,41.5016936 9.94106751,33.449564 9.93591444,33.4078314 C9.86390357,32.585712 9.18052702,31.940923 8.34718289,31.940923 L3.80944107,31.940923 C3.46880983,31.940923 3.19186528,31.6613278 3.19186528,31.3177336 L3.19186528,3.84393457 C3.19186528,3.50020709 3.46894196,3.22074518 3.80944107,3.22074518 L49.1906911,3.22074518 C49.5313223,3.22074518 49.8082669,3.50034042 49.8082669,3.84393457 L49.8082669,14.3844218 C49.8082669,15.2738734 50.5229582,15.9947944 51.4041334,15.9947944 C52.2853086,15.9947944 53,15.2738734 53,14.3844218 L53,3.84393457 C53,1.72437065 51.2911622,0 49.1906911,0 Z" id="Path" fill-rule="evenodd"></path>
                                <path d="M63.2279083,20 L31.7722225,20 C29.6922731,20 28,21.7227593 28,23.8404757 L28,42.5653092 C28,44.6828925 29.6921423,46.405785 31.7722225,46.405785 L51.4653411,46.405785 L59.4439103,54.5287155 C59.7462795,54.8365557 60.1504415,55 60.5616688,55 C60.7652545,55 60.9706719,54.9599049 61.1661455,54.87745 C61.7564916,54.6283539 62.141682,54.0418459 62.141682,53.390999 L62.141682,46.4056518 L63.2277775,46.4056518 C65.3077269,46.4056518 67,44.6828925 67,42.565176 L67,23.8403425 C67.0001308,21.7227593 65.3079886,20 63.2279083,20 Z M63.8395812,42.5653092 C63.8395812,42.9085823 63.5652116,43.1879163 63.2280392,43.1879163 L60.5620614,43.1879163 C59.7304479,43.1879163 59.0503462,43.8422265 58.987936,44.6727688 C58.98388,44.7079353 58.9812632,49.5068316 58.9812632,49.5068316 L53.2434446,43.6650618 C53.237426,43.6589343 53.2311457,43.6532065 53.2251271,43.647079 C53.2026228,43.6247003 53.181296,43.6052521 53.1611468,43.5878021 C52.8829829,43.3395052 52.5196426,43.1877831 52.120845,43.1877831 L31.7722225,43.1877831 C31.4349193,43.1877831 31.1606805,42.9084491 31.1606805,42.565176 L31.1606805,23.8403425 C31.1606805,23.4969363 31.4350501,23.2177355 31.7722225,23.2177355 L63.2280392,23.2177355 C63.5652116,23.2177355 63.8395812,23.4970695 63.8395812,23.8403425 L63.8395812,42.5653092 Z" id="Shape" fill-rule="nonzero"></path>
                                <path d="M47,30 C45.8960093,30 45,30.8960093 45,32 C45,33.1039907 45.8960093,34 47,34 C48.1041563,34 49,33.1039907 49,32 C49,30.8960093 48.1039907,30 47,30 Z" id="Path" fill-rule="evenodd"></path>
                                <path d="M39.4653616,10 C39.4653616,10 11.5346384,10 11.5346384,10 C10.6871439,10 10,10.8953469 10,12 C10,13.1046531 10.687271,14 11.5346384,14 L39.4653616,14 C40.3128561,14 41,13.1046531 41,12 C41,10.8953469 40.3128561,10 39.4653616,10 Z" id="Path" fill-rule="evenodd"></path>
                                <path d="M22.4282355,21 L11.5717645,21 C10.7037674,21 10,21.8953469 10,23 C10,24.1046531 10.7038975,25 11.5717645,25 L22.4282355,25 C23.2963627,25 24,24.1046531 24,23 C24,21.8953469 23.2962326,21 22.4282355,21 Z" id="Path" fill-rule="evenodd"></path>
                                <path d="M40,30 C38.8961749,30 38,30.8960093 38,32 C38,33.1039907 38.8961749,34 40,34 C41.1041563,34 42,33.1039907 42,32 C42,30.8960093 41.1041563,30 40,30 Z" id="Path" fill-rule="evenodd"></path>
                                <path d="M55,30 C53.8960093,30 53,30.8960093 53,32 C53,33.1039907 53.8960093,34 55,34 C56.1041563,34 57,33.1039907 57,32 C57,30.8960093 56.1039907,30 55,30 Z" id="Path" fill-rule="evenodd"></path>
                            </g>
                        </g>
                    </g>
                </g>
            </g>
        </g>
    </g>
</svg>