<?xml version="1.0" encoding="UTF-8"?>
<svg width="221px" height="221px" viewBox="0 0 221 221" version="1.1" xmlns="http://www.w3.org/2000/svg" xmlns:xlink="http://www.w3.org/1999/xlink">
    <!-- Generator: Sketch 52.4 (67378) - http://www.bohemiancoding.com/sketch -->
    <title>Bitmap</title>
    <desc>Created with Sketch.</desc>
    <defs>
        <filter x="-60.7%" y="-52.4%" width="217.2%" height="217.2%" filterUnits="objectBoundingBox" id="filter-1">
            <feOffset dx="0" dy="10" in="SourceAlpha" result="shadowOffsetOuter1"></feOffset>
            <feGaussianBlur stdDeviation="10" in="shadowOffsetOuter1" result="shadowBlurOuter1"></feGaussianBlur>
            <feColorMatrix values="0 0 0 0 0.458823529   0 0 0 0 0.494117647   0 0 0 0 0.564705882  0 0 0 0.1 0" type="matrix" in="shadowBlurOuter1" result="shadowMatrixOuter1"></feColorMatrix>
            <feMerge>
                <feMergeNode in="shadowMatrixOuter1"></feMergeNode>
                <feMergeNode in="SourceGraphic"></feMergeNode>
            </feMerge>
        </filter>
        <linearGradient x1="0%" y1="0%" x2="96.1058171%" y2="100%" id="linearGradient-2">
            <stop stop-color="#FF8F00" offset="0%"></stop>
            <stop stop-color="#FFB900" offset="100%"></stop>
        </linearGradient>
        <path d="M20,0 L125,0 C136.045695,-2.02906125e-15 145,8.954305 145,20 L145,125 C145,136.045695 136.045695,145 125,145 L20,145 C8.954305,145 1.3527075e-15,136.045695 0,125 L0,20 C-1.3527075e-15,8.954305 8.954305,2.02906125e-15 20,0 Z" id="path-3"></path>
        <filter x="-33.1%" y="-24.8%" width="162.1%" height="162.1%" filterUnits="objectBoundingBox" id="filter-5">
            <feOffset dx="-3" dy="9" in="SourceAlpha" result="shadowOffsetOuter1"></feOffset>
            <feGaussianBlur stdDeviation="13.5" in="shadowOffsetOuter1" result="shadowBlurOuter1"></feGaussianBlur>
            <feColorMatrix values="0 0 0 0 1   0 0 0 0 0.639215686   0 0 0 0 0  0 0 0 0.507472826 0" type="matrix" in="shadowBlurOuter1"></feColorMatrix>
        </filter>
    </defs>
    <g id="Page-1" stroke="none" stroke-width="1" fill="none" fill-rule="evenodd">
        <g id="How-it-works" transform="translate(-98.000000, -628.000000)">
            <g id="Group-6" transform="translate(139.000000, 389.000000)">
                <g id="Group-4">
                    <g id="Group-2-Copy-2" transform="translate(0.000000, 258.000000)">
                        <g id="Bitmap" filter="url(#filter-1)">
                            <mask id="mask-4" fill="white">
                                <use xlink:href="#path-3"></use>
                            </mask>
                            <g id="Mask">
                                <use fill="black" fill-opacity="1" filter="url(#filter-5)" xlink:href="#path-3"></use>
                                <use fill="url(#linearGradient-2)" fill-rule="evenodd" xlink:href="#path-3"></use>
                            </g>
                            <g id="microphone" mask="url(#mask-4)" fill="#FFFFFF">
                                <g transform="translate(51.000000, 39.000000)">
                                    <path d="M41.4631759,23.0001289 C40.6144572,23.0001289 39.926096,23.6939327 39.926096,24.5499377 L39.926096,34.233535 C39.926096,44.4777454 31.6602638,52.8119002 21.5000639,52.8119002 C11.339864,52.8119002 3.07415965,44.4774875 3.07415965,34.2334061 L3.07415965,24.5498088 C3.07415965,23.6938038 2.38579853,23 1.53707983,23 C0.688105369,23 0,23.6938038 0,24.5498088 L0,34.2334061 C0,45.6656313 8.82260802,55.0580915 19.9629841,55.8554307 L19.9629841,63.9003824 L12.0123683,63.9003824 C11.1636496,63.9003824 10.4752885,64.5941862 10.4752885,65.4501912 C10.4752885,66.3061962 11.1635218,67 12.0123683,67 L30.9875037,67 C31.8362224,67 32.5245835,66.3061962 32.5245835,65.4501912 C32.5245835,64.5941862 31.8363503,63.9003824 30.9875037,63.9003824 L23.0370159,63.9003824 L23.0370159,55.8554307 C34.1775198,55.0580915 42.9999999,45.6655023 42.9999999,34.2334061 L42.9999999,24.5498088 C43.0002557,23.6939327 42.3118946,23.0001289 41.4631759,23.0001289 Z" id="Path" fill-rule="evenodd"></path>
                                    <path d="M23.0415835,0 L20.9584165,0 C13.813102,0 8,5.87030993 8,13.085943 L8,34.914057 C8,42.1296901 13.813102,48 20.9584165,48 L23.0415835,48 C30.186898,48 36,42.1296901 36,34.914057 L36,13.085943 C36,5.87030993 30.186898,0 23.0415835,0 Z M32.8740793,17.1829739 L27.2081774,17.1829739 C26.3448724,17.1829739 25.645152,17.8895804 25.645152,18.7613813 C25.645152,19.6331822 26.3448724,20.3397887 27.2081774,20.3397887 L32.8740793,20.3397887 L32.8740793,24.7333291 L27.2081774,24.7333291 C26.3448724,24.7333291 25.645152,25.4399357 25.645152,26.3117366 C25.645152,27.1835375 26.3448724,27.890144 27.2081774,27.890144 L32.8740793,27.890144 L32.8740793,32.283947 L27.2081774,32.283947 C26.3448724,32.283947 25.645152,32.9905535 25.645152,33.8623544 C25.645152,34.7341553 26.3448724,35.4407618 27.2081774,35.4407618 L32.8600355,35.4407618 C32.5881315,40.6718299 28.2883813,44.8433165 23.0417135,44.8433165 L20.9585466,44.8433165 C15.7118787,44.8433165 11.4121286,40.6718299 11.1402246,35.4407618 L16.7920827,35.4407618 C17.6553876,35.4407618 18.3551081,34.7341553 18.3551081,33.8623544 C18.3551081,32.9905535 17.6553876,32.283947 16.7920827,32.283947 L11.1261808,32.283947 L11.1261808,27.890144 L16.7920827,27.890144 C17.6553876,27.890144 18.3551081,27.1835375 18.3551081,26.3117366 C18.3551081,25.4399357 17.6553876,24.7333291 16.7920827,24.7333291 L11.1261808,24.7333291 L11.1261808,20.3397887 L16.7920827,20.3397887 C17.6553876,20.3397887 18.3551081,19.6331822 18.3551081,18.7613813 C18.3551081,17.8895804 17.6553876,17.1829739 16.7920827,17.1829739 L11.1261808,17.1829739 L11.1261808,13.085943 C11.1261808,9.15121754 13.4044008,5.74359087 16.6987173,4.13773859 L16.6987173,8.60021941 C16.6987173,9.47202031 17.3985678,10.1786268 18.2617427,10.1786268 C19.1249176,10.1786268 19.824768,9.47202031 19.824768,8.60021941 L19.824768,3.22483606 C20.1970593,3.18137077 23.8032007,3.18137077 24.175492,3.22483606 L24.175492,8.60021941 C24.175492,9.47202031 24.8752125,10.1786268 25.7385174,10.1786268 C26.6015623,10.1786268 27.3015428,9.47202031 27.3015428,8.60021941 L27.3015428,4.13773859 C30.5958593,5.74359087 32.8740793,9.15095491 32.8740793,13.0858117 L32.8740793,17.1829739 Z" id="Shape" fill-rule="nonzero"></path>
                                </g>
                            </g>
                        </g>
                    </g>
                </g>
            </g>
        </g>
    </g>
</svg>