<?xml version="1.0" encoding="UTF-8"?>
<svg width="219px" height="219px" viewBox="0 0 219 219" version="1.1" xmlns="http://www.w3.org/2000/svg" xmlns:xlink="http://www.w3.org/1999/xlink">
    <!-- Generator: Sketch 52.4 (67378) - http://www.bohemiancoding.com/sketch -->
    <title>Group 5</title>
    <desc>Created with Sketch.</desc>
    <defs>
        <filter x="-60.7%" y="-52.4%" width="217.2%" height="217.2%" filterUnits="objectBoundingBox" id="filter-1">
            <feOffset dx="0" dy="10" in="SourceAlpha" result="shadowOffsetOuter1"></feOffset>
            <feGaussianBlur stdDeviation="10" in="shadowOffsetOuter1" result="shadowBlurOuter1"></feGaussianBlur>
            <feColorMatrix values="0 0 0 0 0.458823529   0 0 0 0 0.494117647   0 0 0 0 0.564705882  0 0 0 0.1 0" type="matrix" in="shadowBlurOuter1" result="shadowMatrixOuter1"></feColorMatrix>
            <feMerge>
                <feMergeNode in="shadowMatrixOuter1"></feMergeNode>
                <feMergeNode in="SourceGraphic"></feMergeNode>
            </feMerge>
        </filter>
        <linearGradient x1="50%" y1="0%" x2="50%" y2="100%" id="linearGradient-2">
            <stop stop-color="#FF9583" offset="0%"></stop>
            <stop stop-color="#FF6C84" offset="100%"></stop>
        </linearGradient>
        <path d="M20,0 L125,0 C136.045695,-2.02906125e-15 145,8.954305 145,20 L145,125 C145,136.045695 136.045695,145 125,145 L20,145 C8.954305,145 1.3527075e-15,136.045695 0,125 L0,20 C-1.3527075e-15,8.954305 8.954305,2.02906125e-15 20,0 Z" id="path-3"></path>
        <filter x="-33.1%" y="-24.8%" width="162.1%" height="162.1%" filterUnits="objectBoundingBox" id="filter-5">
            <feOffset dx="-3" dy="9" in="SourceAlpha" result="shadowOffsetOuter1"></feOffset>
            <feGaussianBlur stdDeviation="13.5" in="shadowOffsetOuter1" result="shadowBlurOuter1"></feGaussianBlur>
            <feColorMatrix values="0 0 0 0 1   0 0 0 0 0.462745098   0 0 0 0 0.517647059  0 0 0 0.497763813 0" type="matrix" in="shadowBlurOuter1"></feColorMatrix>
        </filter>
    </defs>
    <g id="Page-1" stroke="none" stroke-width="1" fill="none" fill-rule="evenodd">
        <g id="How-it-works" transform="translate(-99.000000, -371.000000)">
            <g id="Group-6" transform="translate(139.000000, 389.000000)">
                <g id="Group-4">
                    <g id="Group-2">
                        <g id="Group-5">
                            <g id="Bitmap" filter="url(#filter-1)">
                                <mask id="mask-4" fill="white">
                                    <use xlink:href="#path-3"></use>
                                </mask>
                                <g id="Mask">
                                    <use fill="black" fill-opacity="1" filter="url(#filter-5)" xlink:href="#path-3"></use>
                                    <use fill="url(#linearGradient-2)" fill-rule="evenodd" xlink:href="#path-3"></use>
                                </g>
                            </g>
                            <g id="Group-3" transform="translate(42.000000, 28.000000)" fill="#FFFFFF">
                                <g id="play-button">
                                    <path d="M53.1709549,14.25615 C49.36631,7.6664198 43.223214,2.95245597 35.8730965,0.983062684 C28.5230904,-0.986553261 20.8461129,0.0241941479 14.2560338,3.82905308 C7.66606597,7.63380068 2.9523141,13.7768827 0.982916348,21.1269836 C-0.986481409,28.4769731 0.0242682935,36.1541557 3.8289132,42.7438859 C7.63344677,49.3336162 13.7767654,54.04758 21.1267716,56.0169733 C23.5811155,56.6746994 26.071641,57 28.546358,57 C33.4825438,57 38.3544932,55.7053661 42.7439457,53.1710942 C49.3336908,49.3664579 54.0476654,43.2233759 56.0170631,35.873275 C57.9865722,28.5230629 56.9755998,20.8461029 53.1709549,14.25615 Z M53.1512498,35.1054455 C51.3869188,41.6900546 47.1640135,47.193557 41.2602733,50.6019767 C35.3567558,54.0105077 28.4791157,54.9158275 21.8944916,53.1517231 C15.3097562,51.3873961 9.80635267,47.1645003 6.39781389,41.2607736 C2.98938643,35.3572695 2.08395331,28.4795336 3.84839565,21.8948132 C5.61283799,15.310204 9.83574335,9.8069243 15.7393722,6.39828192 C19.6720446,4.12774625 24.0360029,2.9680419 28.4585199,2.9680419 C30.6750665,2.9680419 32.9070878,3.25949875 35.1050425,3.84853549 C41.6896666,5.6128625 47.1931815,9.83575827 50.6016089,15.739485 C54.0101477,21.6431004 54.9156922,28.520725 53.1512498,35.1054455 Z" id="Shape" fill-rule="nonzero"></path>
                                    <path d="M42.136811,26.2686895 L23.6900153,15.6236203 C22.7110882,15.0586998 21.5423404,15.058924 20.5634132,15.6235082 C19.584486,16.1883166 19,17.2001529 19,18.3298818 L19,39.6200202 C19,40.749749 19.5843739,41.7614733 20.5634132,42.3263937 C21.0528207,42.60891 21.5895433,42.75 22.12649,42.75 C22.6635489,42.75 23.2004957,42.6085738 23.6899032,42.3262816 L42.1369232,31.6813245 C43.1157382,31.116292 43.7,30.1045677 43.7,28.9748389 C43.7,27.8452221 43.1156261,26.8334979 42.136811,26.2686895 Z M40.6426885,29.0951969 L22.1957807,39.740154 C22.1732444,39.7532657 22.1262658,39.7802734 22.0571993,39.740154 C21.9879087,39.7001468 21.9879087,39.6461314 21.9879087,39.6201322 L21.9879087,18.3299938 C21.9879087,18.3039947 21.9879087,18.2499793 22.0571993,18.209972 C22.0843326,18.1942829 22.1079901,18.1889038 22.1281718,18.1889038 C22.1595657,18.1889038 22.1822141,18.2020154 22.196005,18.209972 L40.6428007,28.8550413 C40.665337,28.8680408 40.7120913,28.8950485 40.7120913,28.975063 C40.7120913,29.0550776 40.6651127,29.0821973 40.6426885,29.0951969 Z" id="Shape" fill-rule="nonzero"></path>
                                    <path d="M46.2292012,14.7873937 C42.583014,10.3800814 37.1018242,7.41904969 31.1908793,6.66339663 C30.3528856,6.55606138 29.5789812,7.10544129 29.4642648,7.89059271 C29.3497785,8.6755288 29.9369379,9.39877674 30.7758521,9.50611199 C35.8974743,10.1607816 40.6461819,12.7260618 43.804508,16.5436223 C44.1066598,16.908799 44.5598874,17.1 45.0179477,17.1 C45.3457582,17.1 45.6761001,17.0021387 45.9552395,16.7997412 C46.624783,16.3148486 46.7474387,15.4138569 46.2292012,14.7873937 Z" id="Path"></path>
                                </g>
                                <g id="chat-1" transform="translate(8.000000, 64.000000)">
                                    <path d="M11.067908,0 L3.25027382,0 C2.50950288,0 1.90909091,0.63817403 1.90909091,1.425 C1.90909091,2.21194566 2.50950288,2.85 3.25027382,2.85 L11.067908,2.85 C11.8086789,2.85 12.4090909,2.21182597 12.4090909,1.425 C12.4090909,0.638054342 11.8085663,0 11.067908,0 Z" id="Path"></path>
                                    <path d="M26.1627586,8.55 L1.5190596,8.55 C0.680042638,8.55 0,9.18817403 0,9.975 C0,10.7619457 0.680042638,11.4 1.5190596,11.4 L26.1627586,11.4 C27.001648,11.4 27.6818182,10.7620653 27.6818182,9.975 C27.6818182,9.18817403 27.001648,8.55 26.1627586,8.55 Z" id="Path"></path>
                                    <path d="M40.5470004,0 L20.5439087,0 C19.7413784,0 19.0909091,0.63817403 19.0909091,1.425 C19.0909091,2.21194566 19.7413784,2.85 20.5439087,2.85 L40.5470004,2.85 C41.3494086,2.85 42,2.21182597 42,1.425 C42,0.637934655 41.3494086,0 40.5470004,0 Z" id="Path"></path>
                                    <path d="M40.4714206,8.55 L34.9376703,8.55 C34.0935237,8.55 33.4090909,9.18817403 33.4090909,9.975 C33.4090909,10.7620653 34.0936521,11.4 34.9376703,11.4 L40.4714206,11.4 C41.3155672,11.4 42,10.7620653 42,9.975 C42,9.18793465 41.3155672,8.55 40.4714206,8.55 Z" id="Path"></path>
                                    <path d="M15.7140755,16.15 L2.42228817,16.15 C1.61161489,16.15 0.954545455,16.7879347 0.954545455,17.575 C0.954545455,18.3619457 1.61161489,19 2.42228817,19 L15.7140755,19 C16.5247487,19 17.1818182,18.361826 17.1818182,17.575 C17.1818182,16.7879347 16.5247487,16.15 15.7140755,16.15 Z" id="Path"></path>
                                    <path d="M39.5842208,16.15 L23.4157792,16.15 C22.6088237,16.15 21.9545455,16.7879347 21.9545455,17.575 C21.9545455,18.3619457 22.6089464,19 23.4157792,19 L39.5842208,19 C40.3911763,19 41.0454545,18.361826 41.0454545,17.575 C41.0454545,16.7879347 40.3911763,16.15 39.5842208,16.15 Z" id="Path"></path>
                                </g>
                            </g>
                        </g>
                    </g>
                </g>
            </g>
        </g>
    </g>
</svg>