<?xml version="1.0" encoding="UTF-8"?>
<svg width="219px" height="219px" viewBox="0 0 219 219" version="1.1" xmlns="http://www.w3.org/2000/svg" xmlns:xlink="http://www.w3.org/1999/xlink">
    <!-- Generator: Sketch 52.4 (67378) - http://www.bohemiancoding.com/sketch -->
    <title>Group 2 Copy</title>
    <desc>Created with Sketch.</desc>
    <defs>
        <filter x="-60.7%" y="-52.4%" width="217.2%" height="217.2%" filterUnits="objectBoundingBox" id="filter-1">
            <feOffset dx="0" dy="10" in="SourceAlpha" result="shadowOffsetOuter1"></feOffset>
            <feGaussianBlur stdDeviation="10" in="shadowOffsetOuter1" result="shadowBlurOuter1"></feGaussianBlur>
            <feColorMatrix values="0 0 0 0 0.458823529   0 0 0 0 0.494117647   0 0 0 0 0.564705882  0 0 0 0.1 0" type="matrix" in="shadowBlurOuter1" result="shadowMatrixOuter1"></feColorMatrix>
            <feMerge>
                <feMergeNode in="shadowMatrixOuter1"></feMergeNode>
                <feMergeNode in="SourceGraphic"></feMergeNode>
            </feMerge>
        </filter>
        <linearGradient x1="94.6605603%" y1="7.87715517%" x2="7.83405172%" y2="94.8733836%" id="linearGradient-2">
            <stop stop-color="#31D084" offset="0%"></stop>
            <stop stop-color="#26CFD0" offset="100%"></stop>
        </linearGradient>
        <path d="M20,0 L125,0 C136.045695,-2.02906125e-15 145,8.954305 145,20 L145,125 C145,136.045695 136.045695,145 125,145 L20,145 C8.954305,145 1.3527075e-15,136.045695 0,125 L0,20 C-1.3527075e-15,8.954305 8.954305,2.02906125e-15 20,0 Z" id="path-3"></path>
        <filter x="-33.1%" y="-24.8%" width="162.1%" height="162.1%" filterUnits="objectBoundingBox" id="filter-5">
            <feOffset dx="-3" dy="9" in="SourceAlpha" result="shadowOffsetOuter1"></feOffset>
            <feGaussianBlur stdDeviation="13.5" in="shadowOffsetOuter1" result="shadowBlurOuter1"></feGaussianBlur>
            <feColorMatrix values="0 0 0 0 0.17254902   0 0 0 0 0.811764706   0 0 0 0 0.666666667  0 0 0 0.41295856 0" type="matrix" in="shadowBlurOuter1"></feColorMatrix>
        </filter>
    </defs>
    <g id="Page-1" stroke="none" stroke-width="1" fill="none" fill-rule="evenodd">
        <g id="How-it-works" transform="translate(-691.000000, -371.000000)">
            <g id="Group-6" transform="translate(139.000000, 389.000000)">
                <g id="Group-4">
                    <g id="Group-2-Copy" transform="translate(592.000000, 0.000000)">
                        <g id="Bitmap" filter="url(#filter-1)">
                            <mask id="mask-4" fill="white">
                                <use xlink:href="#path-3"></use>
                            </mask>
                            <g id="Mask">
                                <use fill="black" fill-opacity="1" filter="url(#filter-5)" xlink:href="#path-3"></use>
                                <use fill="url(#linearGradient-2)" fill-rule="evenodd" xlink:href="#path-3"></use>
                            </g>
                            <g id="edit" mask="url(#mask-4)" fill="#FFFFFF" fill-rule="nonzero">
                                <g transform="translate(43.000000, 41.000000)" id="Shape">
                                    <path d="M49.4368097,9.64416797 C50.2999923,9.64416797 51,8.96334961 51,8.12355469 L51,3.32558789 C51,1.49194336 49.4672943,0 47.5829404,0 L14.512953,0 C14.0984382,0 13.7008733,0.160330078 13.4075379,0.445429687 L0.457901668,13.0423535 C0.164819302,13.3274531 0,13.7143125 0,14.1175371 L0,59.6742891 C0.000126492174,61.5080566 1.5337176,63 3.41883047,63 L47.5828139,63 C49.4671678,63 50.9998735,61.5080566 50.9998735,59.6744121 L50.9998735,36.4574355 C51,35.6177637 50.3001188,34.9368223 49.4368097,34.9368223 C48.5736271,34.9368223 47.8736194,35.6176406 47.8736194,36.4574355 L47.8736194,59.6744121 C47.8736194,59.8311738 47.743206,59.9587734 47.5830669,59.9587734 L3.41895696,59.9587734 C3.25780593,59.9587734 3.12663355,59.8311738 3.12663355,59.6744121 L3.12663355,15.6383965 L12.6590838,15.6383965 C14.5435642,15.6383965 16.0763963,14.1470684 16.0763963,12.3140391 L16.0763963,3.04122656 L47.5829404,3.04122656 C47.743206,3.04122656 47.8734929,3.16882617 47.8734929,3.32558789 L47.8734929,8.12355469 C47.8734929,8.96334961 48.5735006,9.64416797 49.4368097,9.64416797 Z M12.9500157,12.313916 C12.9500157,12.4700625 12.8194758,12.5970469 12.6590838,12.5970469 L5.33796973,12.5970469 L12.9500157,5.19208594 L12.9500157,12.313916 Z"></path>
                                    <path d="M61.4637914,13.283207 L59.6369062,11.4998214 C57.5885234,9.49993689 54.2556296,9.50018221 52.2069954,11.4998214 L37.7056157,25.6578602 L12.5526199,25.6578602 C11.6951486,25.6578602 11,26.3365501 11,27.1737196 C11,28.0108891 11.6951486,28.6895791 12.5526199,28.6895791 L34.6003758,28.6895791 L25.2556341,37.8130707 L12.5526199,37.8130707 C11.6951486,37.8130707 11,38.4917606 11,39.3289301 C11,40.1660996 11.6951486,40.8447895 12.5526199,40.8447895 L22.1502686,40.8447895 L22.1252669,40.8691993 C21.9358065,41.0541739 21.7988624,41.2836749 21.7271238,41.535623 L19.328968,49.9682811 L12.5526199,49.9682811 C11.6951486,49.9682811 11,50.6469711 11,51.4841406 C11,52.3213101 11.6951486,53 12.5526199,53 L20.5094516,53 C20.5095772,53 20.8498018,52.9624654 20.8998052,52.9497085 C20.9079716,52.9476232 30.699101,50.2950532 30.699101,50.2950532 C30.957159,50.2251358 31.1923512,50.0911886 31.3816859,49.9063367 L61.463917,20.5367134 C63.5120486,18.5370743 63.5120486,15.2830915 61.4637914,13.283207 Z M22.7398822,49.3062732 L24.0071809,44.8504463 L27.3038913,48.0691023 L22.7398822,49.3062732 Z M30.2838713,46.6909925 L25.4190876,41.9413896 L50.2509556,17.6974516 L55.1158649,22.4470545 L30.2838713,46.6909925 Z M59.2679109,18.3930689 L57.3116198,20.303042 L52.4467105,15.5533163 L54.4030016,13.6433433 C55.2408736,12.8254317 56.6037819,12.8255544 57.4410257,13.6433433 L59.2679109,15.4269743 C60.1055316,16.2447631 60.1055316,17.5754027 59.2679109,18.3930689 Z"></path>
                                </g>
                            </g>
                        </g>
                    </g>
                </g>
            </g>
        </g>
    </g>
</svg>